<svg width="18" height="18" viewBox="0 0 18 18" fill="none" xmlns="http://www.w3.org/2000/svg">
<path d="M17.1098 5.30981C17.0984 3.5135 16.2975 2.15046 14.7478 1.24314C14.0658 0.843682 13.3122 0.670858 12.5218 0.67045C10.0269 0.668412 7.53194 0.662298 5.03698 0.67208C3.00629 0.679825 1.30984 1.91935 0.667455 3.85507C0.572891 4.14039 0.538244 4.4461 0.476288 4.74243C0.465283 4.79501 0.456316 4.848 0.446533 4.90058V13.1024C0.49137 13.3519 0.515826 13.607 0.583896 13.85C1.10074 15.6948 2.29951 16.8279 4.16838 17.2502C4.3359 17.2881 4.50832 17.306 4.67829 17.3334H12.8818C13.1316 17.2885 13.3868 17.2641 13.6301 17.196C15.4729 16.68 16.6093 15.4832 17.0251 13.6164C17.0919 13.3176 17.109 13.003 17.1098 12.6956C17.1164 10.2337 17.1253 7.77175 17.1098 5.30981ZM8.78736 13.5687C6.27814 13.583 4.21077 11.5189 4.21199 9.00068C4.21321 6.48494 6.24676 4.44854 8.77269 4.43428C11.2819 4.42001 13.3493 6.48372 13.3481 9.0019C13.3468 11.5176 11.3133 13.554 8.78736 13.5687ZM13.6236 5.54663C12.8695 5.54419 12.2353 4.90914 12.2357 4.1567C12.2357 3.40181 12.8679 2.77247 13.6256 2.77329C14.3875 2.77369 15.0115 3.39855 15.0095 4.15914C15.0078 4.91729 14.3769 5.54908 13.6236 5.54663Z" fill="#555555"/>
<path d="M0.446533 13.1027C0.49137 13.3522 0.515826 13.6073 0.583896 13.8503C1.10074 15.6951 2.29951 16.8282 4.16838 17.2505C4.3359 17.2884 4.50832 17.3064 4.67829 17.3337C3.26757 17.3337 1.85685 17.3337 0.446533 17.3337C0.446533 15.9234 0.446533 14.513 0.446533 13.1027Z" fill="white"/>
<path d="M12.3636 9.00938C12.3571 10.9912 10.7397 12.5975 8.76449 12.5845C6.78597 12.5714 5.18979 10.9655 5.19631 8.99389C5.20283 7.01252 6.82062 5.40533 8.79587 5.41878C10.7744 5.43183 12.3702 7.03779 12.3636 9.00938Z" fill="#555555"/>
<path d="M14.0248 4.15555C14.0256 4.37484 13.8401 4.56152 13.6233 4.5603C13.4085 4.55908 13.2189 4.36587 13.2222 4.15147C13.2259 3.94074 13.4069 3.76058 13.6188 3.75772C13.841 3.75487 14.024 3.93422 14.0248 4.15555Z" fill="#555555"/>
</svg>
