<svg width="17" height="18" viewBox="0 0 17 18" fill="none" xmlns="http://www.w3.org/2000/svg">
<path d="M15.7659 15.9615C13.9104 13.254 12.0533 10.5475 10.197 7.84062C10.1727 7.80536 10.1505 7.76865 10.1203 7.72181C10.4454 7.34276 10.769 6.96533 11.0929 6.58809C12.7762 4.62755 14.4597 2.66683 16.143 0.706111C16.1535 0.693814 16.1618 0.679889 16.1712 0.666687H14.7416C12.9945 2.70119 11.2471 4.73588 9.47214 6.80275C9.4508 6.76424 9.43561 6.73114 9.41536 6.70166C8.05233 4.71345 6.68894 2.72561 5.32591 0.737397C5.3109 0.715334 5.30023 0.690378 5.28739 0.666687H0.446533C0.488489 0.735408 0.52719 0.806299 0.572582 0.872489C2.61848 3.85679 4.66492 6.84073 6.71136 9.82485C6.7327 9.85596 6.75314 9.88779 6.78298 9.93282C6.61678 10.1278 6.44968 10.3247 6.28131 10.5207C4.37883 12.7363 2.47616 14.9516 0.573848 17.1673C0.528637 17.2201 0.488851 17.2778 0.446533 17.3334H1.87611C2.52354 16.5758 3.1697 15.8172 3.81839 15.0607C4.97163 13.7157 6.12651 12.3719 7.28066 11.0278C7.3228 10.9786 7.3662 10.9307 7.41648 10.8734C7.44903 10.9128 7.47796 10.9432 7.50147 10.9774C8.93232 13.0634 10.3628 15.1497 11.7931 17.2362C11.8143 17.2672 11.8313 17.301 11.8503 17.3334H16.6909C16.3828 16.876 16.0777 16.4165 15.7659 15.9615ZM14.5476 16.2973C13.9305 16.2978 13.3135 16.2946 12.6964 16.3004C12.5816 16.3013 12.5109 16.2685 12.4438 16.1725C9.12962 11.4177 5.81274 6.66459 2.49641 1.91126C2.46585 1.8675 2.438 1.82174 2.38917 1.74687C2.99446 1.74687 3.5681 1.76966 4.13884 1.73819C4.47648 1.71957 4.66257 1.83838 4.85372 2.11363C8.09211 6.77599 11.3433 11.4295 14.5917 16.085C14.6338 16.1454 14.6745 16.2067 14.7298 16.2877C14.6505 16.2921 14.5991 16.2971 14.5476 16.2973Z" fill="#555555"/>
</svg>
