<svg width="19" height="14" viewBox="0 0 19 14" fill="none" xmlns="http://www.w3.org/2000/svg">
<path d="M18.6481 2.72932C18.4477 1.62185 17.7708 0.910933 16.7126 0.717384C16.276 0.637216 15.8313 0.578807 15.3878 0.558765C13.507 0.47373 11.6254 0.407018 9.74398 0.333435C9.7434 0.352905 9.74283 0.372374 9.74226 0.391843C9.30964 0.391843 8.87673 0.385545 8.44439 0.392989C6.65062 0.423052 4.85657 0.442808 3.07225 0.665561C1.96249 0.803851 1.19374 1.46381 0.962681 2.56097C0.833552 3.17368 0.763119 3.80186 0.712155 4.42689C0.603068 5.76369 0.576155 7.1048 0.671211 8.44361C0.730192 9.27163 0.80578 10.1022 0.943498 10.9202C1.12416 11.9916 1.86257 12.7 2.90218 12.8543C3.51776 12.9456 4.13935 13.0235 4.76065 13.0438C6.6678 13.1057 8.5761 13.1629 10.4841 13.1724C12.3861 13.1821 14.2889 13.1369 16.1835 12.9379C16.672 12.8864 17.1532 12.8085 17.5801 12.5351C18.2862 12.083 18.6074 11.4035 18.6845 10.6056C18.7884 9.52588 18.8938 8.44361 18.9293 7.36048C18.9805 5.81065 18.925 4.2614 18.6481 2.72932ZM7.96682 9.51843V4.04552C9.55529 4.95858 11.1272 5.86219 12.7268 6.78183C11.1295 7.70033 9.55787 8.60366 7.96682 9.51843Z" fill="#555555"/>
</svg>
